# xmcd
#
# Track frame offsets:
#	150
#	3620
#	7502
#	16620
#	19390
#	28680
#	33392
#	39472
#	48382
#	55532
#	62630
#	68942
#	74477
#	81620
#	87867
#	91902
#	103135
#	112705
#	117435
#	121295
#	129575
#	136395
#	144467
#	150012
#	158302
#	167070
#	172910
#	176585
#	180332
#
# Disc length: 2466 seconds
#
# Revision: 1
# Processed by: cddbd v1.5.1PL0 Copyright (c) Steve Scherf et al.
# Submitted via: CDex 1.50Beta5
#
DISCID=6409a01d
DTITLE=Various Artist - ハンナ・バーベラ同窓会［トムとジェリー・チキチキマシン猛レース］
DYEAR=2002
DGENRE=Anime
TTITLE0=鈴木やすし/ドラネコ大将
TTITLE1=梅木マリ、フォー・コインズ/トムとジェリー
TTITLE2=音羽ゆりかご会/宇宙怪人ゴースト
TTITLE3=愛川欽也、音羽ゆりかご会/怪人ロロの歌
TTITLE4=関　敬六、石川　進、愛川欽也/スーパースリー
TTITLE5=上高田少年合唱団/大魔王シャザーン
TTITLE6=みすず児童合唱団/怪獣王ターガン
TTITLE7=赤間　寛、みすず児童合唱団/走れ!ターガン
TTITLE8=藤田淑子、コールアモーレ/ガリバーと小人たち
TTITLE9=レッドストーン/それ行け弱虫クルッパー
TTITLE10=ケーシー浅沼/チキチキマシン猛レース
TTITLE11=大塚周夫/ブラック魔王とケンケン
TTITLE12=ケーシー浅沼、コールアモーレ/ペネロッピー絶対絶命
TTITLE13=大塚周夫/スカイキッドブラック魔王
TTITLE14=ケーシー浅沼/ケンケン大空を行く
TTITLE15=フォーリーブス/電子鳥人Uバード
TTITLE16=フォーリーブス/銀河トリオのうた
TTITLE17=灘　康次とモダンカンカン/にげろやにげろ大レース
TTITLE18=灘　康次とモダンカンカン+女の子/ラムヂーちゃん
TTITLE19=小原乃梨子/ドラドラ小猫とチャカチャカ娘
TTITLE20=小原乃梨子/地球のマーチ
TTITLE21=ザ・ラニアルズ/ドボチョン一家の幽霊旅行
TTITLE22=相模太郎/猫ふんじゃったブルふんじゃった
TTITLE23=作詞：島村葉二/くま君トリオ大脱走
TTITLE24=小鳩くるみ、古今亭志ん駒/行け行けバンバン恐竜天国
TTITLE25=ジャンクとぶたの木/行ってみようよみんな
TTITLE26=大場ゆかり、大場るみ子/鉄腕アント
TTITLE27=大場ゆかり、大場るみ子/秘密探偵001
TTITLE28=コールアモーレ/緊急指令レスキュー+4
EXTD=
EXTT0=
EXTT1=
EXTT2=
EXTT3=
EXTT4=
EXTT5=
EXTT6=
EXTT7=
EXTT8=
EXTT9=
EXTT10=
EXTT11=
EXTT12=
EXTT13=
EXTT14=
EXTT15=
EXTT16=
EXTT17=
EXTT18=
EXTT19=
EXTT20=
EXTT21=
EXTT22=
EXTT23=
EXTT24=
EXTT25=
EXTT26=
EXTT27=
EXTT28=
PLAYORDER=
